<mxfile host="app.diagrams.net" modified="2023-11-30T19:30:46.228Z" agent="Mozilla/5.0 (Macintosh; Intel Mac OS X 10_15_7) AppleWebKit/605.1.15 (KHTML, like Gecko) Version/17.0 Safari/605.1.15" etag="4Zt6WCSebsZ2_p111mPB" version="22.1.5" type="device">
  <diagram name="Page-1" id="0Jzi237d1tHOaM15pnXB">
    <mxGraphModel dx="658" dy="381" grid="1" gridSize="10" guides="1" tooltips="1" connect="1" arrows="1" fold="1" page="1" pageScale="1" pageWidth="827" pageHeight="1169" math="0" shadow="0">
      <root>
        <mxCell id="0" />
        <mxCell id="1" parent="0" />
        <mxCell id="PeFGSEZr9rElJGkh2VPf-1" value="BUYBAZAAR - HLD" style="rounded=0;whiteSpace=wrap;html=1;fillColor=#d5e8d4;strokeColor=#82b366;fontStyle=1" vertex="1" parent="1">
          <mxGeometry x="50" y="30" width="120" height="30" as="geometry" />
        </mxCell>
        <mxCell id="PeFGSEZr9rElJGkh2VPf-4" style="edgeStyle=orthogonalEdgeStyle;rounded=0;orthogonalLoop=1;jettySize=auto;html=1;entryX=0;entryY=0.5;entryDx=0;entryDy=0;" edge="1" parent="1" source="PeFGSEZr9rElJGkh2VPf-2" target="PeFGSEZr9rElJGkh2VPf-3">
          <mxGeometry relative="1" as="geometry" />
        </mxCell>
        <mxCell id="PeFGSEZr9rElJGkh2VPf-2" value="Landing Page" style="rounded=0;whiteSpace=wrap;html=1;" vertex="1" parent="1">
          <mxGeometry x="50" y="140" width="120" height="60" as="geometry" />
        </mxCell>
        <mxCell id="PeFGSEZr9rElJGkh2VPf-3" value="" style="rounded=0;whiteSpace=wrap;html=1;" vertex="1" parent="1">
          <mxGeometry x="240" y="110" width="120" height="140" as="geometry" />
        </mxCell>
        <mxCell id="PeFGSEZr9rElJGkh2VPf-5" value="Navbar" style="rounded=0;whiteSpace=wrap;html=1;" vertex="1" parent="1">
          <mxGeometry x="250" y="120" width="120" height="30" as="geometry" />
        </mxCell>
        <mxCell id="PeFGSEZr9rElJGkh2VPf-6" value="Body" style="rounded=0;whiteSpace=wrap;html=1;" vertex="1" parent="1">
          <mxGeometry x="250" y="165" width="120" height="30" as="geometry" />
        </mxCell>
        <mxCell id="PeFGSEZr9rElJGkh2VPf-7" value="Footer" style="rounded=0;whiteSpace=wrap;html=1;" vertex="1" parent="1">
          <mxGeometry x="250" y="210" width="120" height="30" as="geometry" />
        </mxCell>
      </root>
    </mxGraphModel>
  </diagram>
</mxfile>
